<svg width="82" height="84" viewBox="0 0 82 84" fill="none" xmlns="http://www.w3.org/2000/svg">
<g filter="url(#filter0_d_579_13053)">
<path d="M20 35.2C20 28.4794 20 25.1191 21.3079 22.5521C22.4584 20.2942 24.2942 18.4584 26.5521 17.3079C29.1191 16 32.4794 16 39.2 16H42.8C49.5206 16 52.8809 16 55.4479 17.3079C57.7058 18.4584 59.5416 20.2942 60.6921 22.5521C62 25.1191 62 28.4794 62 35.2V44.8C62 51.5206 62 54.8809 60.6921 57.4479C59.5416 59.7058 57.7058 61.5416 55.4479 62.6921C52.8809 64 49.5206 64 42.8 64H39.2C32.4794 64 29.1191 64 26.5521 62.6921C24.2942 61.5416 22.4584 59.7058 21.3079 57.4479C20 54.8809 20 51.5206 20 44.8V35.2Z" fill="#FDFDFE"/>
<path fill-rule="evenodd" clip-rule="evenodd" d="M34.624 32.5315C32.965 33.2895 31.75 35.0935 31.75 37.2445C31.75 39.4415 32.65 41.1355 33.938 42.5875C35.001 43.7835 36.287 44.7755 37.541 45.7415C37.8397 45.9715 38.1347 46.2008 38.426 46.4295C38.952 46.8445 39.421 47.2075 39.874 47.4725C40.327 47.7375 40.69 47.8575 41 47.8575C41.31 47.8575 41.674 47.7375 42.126 47.4725C42.579 47.2075 43.048 46.8445 43.574 46.4295C43.8653 46.2002 44.1603 45.9712 44.459 45.7425C45.713 44.7745 46.999 43.7835 48.062 42.5875C49.351 41.1355 50.25 39.4415 50.25 37.2445C50.25 35.0945 49.035 33.2895 47.376 32.5315C45.764 31.7945 43.598 31.9895 41.54 34.1285C41.47 34.2011 41.3862 34.2588 41.2934 34.2982C41.2006 34.3377 41.1008 34.358 41 34.358C40.8992 34.358 40.7994 34.3377 40.7066 34.2982C40.6138 34.2588 40.53 34.2011 40.46 34.1285C38.402 31.9895 36.236 31.7945 34.624 32.5315ZM41 32.5675C38.688 30.4975 36.099 30.2075 34 31.1665C31.786 32.1815 30.25 34.5335 30.25 37.2455C30.25 39.9105 31.36 41.9445 32.817 43.5845C33.983 44.8975 35.41 45.9965 36.671 46.9665C36.9577 47.1865 37.233 47.4005 37.497 47.6085C38.01 48.0125 38.56 48.4425 39.117 48.7685C39.674 49.0945 40.31 49.3585 41 49.3585C41.69 49.3585 42.326 49.0935 42.883 48.7685C43.441 48.4425 43.99 48.0125 44.503 47.6085C44.767 47.4005 45.0423 47.1865 45.329 46.9665C46.589 45.9965 48.017 44.8965 49.183 43.5845C50.64 41.9445 51.75 39.9105 51.75 37.2455C51.75 34.5335 50.215 32.1815 48 31.1685C45.901 30.2085 43.312 30.4985 41 32.5675Z" fill="#F8CACB"/>
</g>
<defs>
<filter id="filter0_d_579_13053" x="0" y="0" width="82" height="88" filterUnits="userSpaceOnUse" color-interpolation-filters="sRGB">
<feFlood flood-opacity="0" result="BackgroundImageFix"/>
<feColorMatrix in="SourceAlpha" type="matrix" values="0 0 0 0 0 0 0 0 0 0 0 0 0 0 0 0 0 0 127 0" result="hardAlpha"/>
<feOffset dy="4"/>
<feGaussianBlur stdDeviation="10"/>
<feColorMatrix type="matrix" values="0 0 0 0 0.898039 0 0 0 0 0.913725 0 0 0 0 0.941176 0 0 0 1 0"/>
<feBlend mode="normal" in2="BackgroundImageFix" result="effect1_dropShadow_579_13053"/>
<feBlend mode="normal" in="SourceGraphic" in2="effect1_dropShadow_579_13053" result="shape"/>
</filter>
</defs>
</svg>
