<svg width="28" height="28" viewBox="0 0 28 28" fill="none" xmlns="http://www.w3.org/2000/svg">
<path fill-rule="evenodd" clip-rule="evenodd" d="M6.5615 5.28698C4.626 6.17132 3.2085 8.27598 3.2085 10.7855C3.2085 13.3487 4.2585 15.325 5.76116 17.019C7.00133 18.4143 8.50166 19.5717 9.96466 20.6987C10.3131 20.967 10.6573 21.2345 10.9972 21.5013C11.6108 21.9855 12.158 22.409 12.6865 22.7181C13.215 23.0273 13.6385 23.1673 14.0002 23.1673C14.3618 23.1673 14.7865 23.0273 15.3138 22.7181C15.8423 22.409 16.3895 21.9855 17.0032 21.5013C17.3431 21.2338 17.6872 20.9666 18.0357 20.6998C19.4987 19.5705 20.999 18.4143 22.2392 17.019C23.743 15.325 24.7918 13.3487 24.7918 10.7855C24.7918 8.27715 23.3743 6.17132 21.4388 5.28698C19.5582 4.42715 17.0312 4.65465 14.6302 7.15015C14.5485 7.23483 14.4507 7.30219 14.3424 7.3482C14.2342 7.39421 14.1178 7.41792 14.0002 7.41792C13.8825 7.41792 13.7661 7.39421 13.6579 7.3482C13.5496 7.30219 13.4518 7.23483 13.3702 7.15015C10.9692 4.65465 8.44216 4.42715 6.5615 5.28698ZM14.0002 5.32898C11.3028 2.91398 8.28233 2.57565 5.8335 3.69448C3.2505 4.87865 1.4585 7.62265 1.4585 10.7866C1.4585 13.8958 2.7535 16.2688 4.45333 18.1821C5.81366 19.714 7.4785 20.9961 8.94966 22.1278C9.28411 22.3845 9.60533 22.6341 9.91333 22.8768C10.5118 23.3481 11.1535 23.8498 11.8033 24.2301C12.4532 24.6105 13.1952 24.9185 14.0002 24.9185C14.8052 24.9185 15.5472 24.6093 16.197 24.2301C16.848 23.8498 17.4885 23.3481 18.087 22.8768C18.395 22.6341 18.7162 22.3845 19.0507 22.1278C20.5207 20.9961 22.1867 19.7128 23.547 18.1821C25.2468 16.2688 26.5418 13.8958 26.5418 10.7866C26.5418 7.62265 24.751 4.87865 22.1668 3.69682C19.718 2.57682 16.6975 2.91515 14.0002 5.32898Z" fill="#D3D8E3"/>
</svg>
