<svg width="24" height="24" viewBox="0 0 24 24" fill="none" xmlns="http://www.w3.org/2000/svg">
<path fill-rule="evenodd" clip-rule="evenodd" d="M5.624 4.53149C3.965 5.28949 2.75 7.09349 2.75 9.24449C2.75 11.4415 3.65 13.1355 4.938 14.5875C6.001 15.7835 7.287 16.7755 8.541 17.7415C8.83967 17.9715 9.13467 18.2008 9.426 18.4295C9.952 18.8445 10.421 19.2075 10.874 19.4725C11.327 19.7375 11.69 19.8575 12 19.8575C12.31 19.8575 12.674 19.7375 13.126 19.4725C13.579 19.2075 14.048 18.8445 14.574 18.4295C14.8653 18.2002 15.1603 17.9712 15.459 17.7425C16.713 16.7745 17.999 15.7835 19.062 14.5875C20.351 13.1355 21.25 11.4415 21.25 9.24449C21.25 7.09449 20.035 5.28949 18.376 4.53149C16.764 3.79449 14.598 3.98949 12.54 6.12849C12.47 6.20108 12.3862 6.25881 12.2934 6.29825C12.2006 6.33769 12.1008 6.35801 12 6.35801C11.8992 6.35801 11.7994 6.33769 11.7066 6.29825C11.6138 6.25881 11.53 6.20108 11.46 6.12849C9.402 3.98949 7.236 3.79449 5.624 4.53149ZM12 4.56749C9.688 2.49749 7.099 2.20749 5 3.16649C2.786 4.18149 1.25 6.53349 1.25 9.24549C1.25 11.9105 2.36 13.9445 3.817 15.5845C4.983 16.8975 6.41 17.9965 7.671 18.9665C7.95767 19.1865 8.233 19.4005 8.497 19.6085C9.01 20.0125 9.56 20.4425 10.117 20.7685C10.674 21.0945 11.31 21.3585 12 21.3585C12.69 21.3585 13.326 21.0935 13.883 20.7685C14.441 20.4425 14.99 20.0125 15.503 19.6085C15.767 19.4005 16.0423 19.1865 16.329 18.9665C17.589 17.9965 19.017 16.8965 20.183 15.5845C21.64 13.9445 22.75 11.9105 22.75 9.24549C22.75 6.53349 21.215 4.18149 19 3.16849C16.901 2.20849 14.312 2.49849 12 4.56749Z" fill="#F8CACB"/>
</svg>
