<svg width="20" height="20" viewBox="0 0 20 20" fill="none" xmlns="http://www.w3.org/2000/svg">
<path fill-rule="evenodd" clip-rule="evenodd" d="M4.12734 1.875H15.8723C16.4282 1.875 16.9032 1.875 17.2832 1.9225C17.6857 1.97333 18.0748 2.0875 18.3948 2.3875C18.7198 2.69333 18.849 3.07417 18.9057 3.47C18.9582 3.83417 18.9582 4.28667 18.9582 4.80333V5.45C18.9582 5.8575 18.9582 6.20833 18.9282 6.5025C18.8948 6.81917 18.824 7.115 18.6523 7.39917C18.4815 7.68167 18.2523 7.88667 17.9873 8.07C17.7382 8.24333 17.4207 8.4225 17.0457 8.63333L14.594 10.0133C14.0357 10.3275 13.8415 10.4408 13.7115 10.5533C13.414 10.8117 13.2432 11.0992 13.1632 11.4583C13.129 11.6125 13.1248 11.8058 13.1248 12.3942V14.6708C13.1248 15.4217 13.1248 16.0592 13.0473 16.55C12.9657 17.0708 12.7748 17.5708 12.2748 17.8833C11.7857 18.1892 11.2482 18.1608 10.7248 18.0367C10.2207 17.9175 9.59984 17.6742 8.85484 17.3833L8.78317 17.355C8.43317 17.2183 8.12817 17.0992 7.8865 16.9742C7.6265 16.84 7.38484 16.6733 7.20067 16.4133C7.01317 16.15 6.939 15.8683 6.90484 15.58C6.87484 15.3175 6.87484 15.0025 6.87484 14.6508V12.3942C6.87484 11.8058 6.8715 11.6125 6.8365 11.4583C6.76104 11.1035 6.56779 10.7845 6.28817 10.5533C6.15817 10.4408 5.96317 10.3275 5.40567 10.0133L2.954 8.63333C2.579 8.4225 2.2615 8.24333 2.01234 8.07C1.74734 7.88667 1.51817 7.68167 1.34734 7.39917C1.17567 7.115 1.10484 6.81833 1.07234 6.5025C1.0415 6.20917 1.0415 5.8575 1.0415 5.45V4.80333C1.0415 4.28667 1.0415 3.83417 1.094 3.47C1.15067 3.07417 1.27984 2.69333 1.60484 2.3875C1.92484 2.0875 2.31317 1.97333 2.7165 1.9225C3.0965 1.875 3.5715 1.875 4.12734 1.875ZM2.87317 3.16333C2.59484 3.19833 2.5065 3.255 2.46067 3.29917C2.419 3.3375 2.36567 3.405 2.33067 3.6475C2.29317 3.9125 2.2915 4.27417 2.2915 4.84583V5.42083C2.2915 5.86583 2.2915 6.1525 2.31484 6.37417C2.3365 6.58 2.37317 6.67917 2.41817 6.75333C2.464 6.82917 2.54067 6.915 2.72484 7.04333C2.91984 7.17833 3.18567 7.32917 3.5915 7.5575L6.019 8.92417L6.08567 8.96167C6.55234 9.22417 6.869 9.4025 7.10734 9.60917C7.58935 10.0158 7.92336 10.5704 8.05734 11.1867C8.12484 11.4925 8.12484 11.8367 8.12484 12.32V14.6192C8.12484 15.0125 8.12567 15.2542 8.14734 15.4358C8.16567 15.6008 8.1965 15.6567 8.219 15.6892C8.244 15.7242 8.294 15.7783 8.45984 15.8642C8.6365 15.955 8.88067 16.0508 9.26567 16.2017C10.0665 16.515 10.6057 16.7242 11.0132 16.8208C11.4123 16.9158 11.544 16.8667 11.6115 16.8242C11.6682 16.7883 11.7557 16.7158 11.8132 16.355C11.8732 15.9742 11.8748 15.4358 11.8748 14.6183V12.32C11.8748 11.8367 11.8748 11.4925 11.9432 11.1867C12.0769 10.5705 12.4106 10.0159 12.8923 9.60917C13.1307 9.4025 13.4482 9.22333 13.9132 8.96167L13.9807 8.92417L16.4082 7.5575C16.814 7.32917 17.0798 7.17833 17.2748 7.04333C17.459 6.915 17.5357 6.82917 17.5815 6.75333C17.6265 6.67917 17.6632 6.58 17.684 6.37417C17.7073 6.1525 17.7082 5.86583 17.7082 5.42V4.845C17.7082 4.27417 17.7065 3.91167 17.669 3.6475C17.634 3.405 17.5798 3.3375 17.5398 3.29917C17.4932 3.25583 17.4048 3.19833 17.1265 3.16333C16.8348 3.12583 16.439 3.125 15.8332 3.125H4.1665C3.56067 3.125 3.16567 3.12583 2.87317 3.16333Z" fill="#596072"/>
</svg>
