<svg width="16" height="16" viewBox="0 0 16 16" fill="none" xmlns="http://www.w3.org/2000/svg">
<g clip-path="url(#clip0_855_1295)">
<path fill-rule="evenodd" clip-rule="evenodd" d="M7.66683 1.83325C6.90079 1.83325 6.14224 1.98414 5.43451 2.27729C4.72678 2.57044 4.08371 3.00012 3.54204 3.5418C3.00036 4.08347 2.57068 4.72653 2.27753 5.43427C1.98438 6.142 1.8335 6.90054 1.8335 7.66659C1.8335 8.43263 1.98438 9.19117 2.27753 9.89891C2.57068 10.6066 3.00036 11.2497 3.54204 11.7914C4.08371 12.3331 4.72678 12.7627 5.43451 13.0559C6.14224 13.349 6.90079 13.4999 7.66683 13.4999C9.21393 13.4999 10.6977 12.8853 11.7916 11.7914C12.8856 10.6974 13.5002 9.21368 13.5002 7.66659C13.5002 6.11949 12.8856 4.63576 11.7916 3.5418C10.6977 2.44783 9.21393 1.83325 7.66683 1.83325ZM0.833496 7.66659C0.833496 3.89325 3.8935 0.833252 7.66683 0.833252C11.4402 0.833252 14.5002 3.89325 14.5002 7.66659C14.5002 9.37325 13.8742 10.9346 12.8395 12.1319L15.0202 14.3133C15.0693 14.359 15.1087 14.4142 15.136 14.4756C15.1633 14.5369 15.178 14.6031 15.1792 14.6702C15.1804 14.7374 15.1681 14.8041 15.1429 14.8663C15.1178 14.9286 15.0803 14.9851 15.0329 15.0326C14.9854 15.0801 14.9288 15.1175 14.8666 15.1427C14.8043 15.1678 14.7376 15.1802 14.6705 15.179C14.6033 15.1778 14.5371 15.1631 14.4758 15.1358C14.4145 15.1084 14.3593 15.069 14.3135 15.0199L12.1322 12.8393C10.8927 13.9132 9.30683 14.5029 7.66683 14.4999C3.8935 14.4999 0.833496 11.4399 0.833496 7.66659Z" fill="#596072"/>
</g>
<defs>
<clipPath id="clip0_855_1295">
<rect width="16" height="16" fill="white"/>
</clipPath>
</defs>
</svg>
