<svg width="83" height="16" viewBox="0 0 83 16" fill="none" xmlns="http://www.w3.org/2000/svg">
<path d="M16.642 0.00159158C16.7145 -0.000922771 16.7508 -0.00217995 16.7789 0.0115039C16.8032 0.023359 16.8237 0.0436527 16.8358 0.0677612C16.8496 0.0955886 16.8485 0.130911 16.8462 0.201557C16.7529 3.05058 15.3161 5.5664 13.1516 7.06635C13.1186 7.08924 13.1021 7.10069 13.0907 7.11506C13.0804 7.12795 13.0731 7.14214 13.0686 7.15794C13.0636 7.17554 13.0639 7.19509 13.0646 7.23419L13.0824 8.24547C13.0836 8.31478 13.0842 8.34943 13.0711 8.37614C13.0596 8.39963 13.0408 8.41889 13.0176 8.43116C12.9911 8.44511 12.9562 8.44572 12.8863 8.44693L8.74283 8.51868C8.67738 8.5206 8.61208 8.52171 8.54693 8.52207L4.54276 8.59142C4.4729 8.59263 4.43797 8.59323 4.41105 8.58021C4.38737 8.56875 4.36796 8.55015 4.35559 8.52707C4.34153 8.50083 4.34092 8.46618 4.3397 8.39687L4.3235 7.47613C4.3228 7.43611 4.32244 7.4161 4.31657 7.39835C4.3113 7.38242 4.3032 7.36828 4.2921 7.35564C4.27973 7.34155 4.2622 7.33078 4.22713 7.30923C2.01718 5.9514 0.451528 3.57169 0.162737 0.779553C0.155465 0.709246 0.151829 0.674092 0.163701 0.645373C0.173986 0.620493 0.193014 0.598829 0.216451 0.585319C0.243502 0.569725 0.279789 0.568468 0.352362 0.565954L16.642 0.00159158Z" fill="#3B99DC"/>
<path d="M16.4952 3.05936C16.5678 3.06188 16.6041 3.06314 16.6311 3.07873C16.6546 3.09224 16.6736 3.1139 16.6839 3.13878C16.6957 3.1675 16.6921 3.20266 16.6848 3.27297C16.3938 6.08694 14.8058 8.48202 12.5685 9.83433C12.5336 9.85537 12.5162 9.86589 12.5038 9.87971C12.4927 9.89211 12.4845 9.906 12.4791 9.92169C12.473 9.93917 12.4723 9.95894 12.4709 9.99849L12.4369 10.9642C12.4345 11.0335 12.4333 11.0681 12.4188 11.0941C12.406 11.117 12.3863 11.1352 12.3624 11.1463C12.3352 11.1588 12.3003 11.1576 12.2305 11.1552L3.89073 10.8663C3.82091 10.8638 3.786 10.8626 3.7598 10.8482C3.73676 10.8355 3.71835 10.816 3.70722 10.7923C3.69456 10.7653 3.69578 10.7307 3.69822 10.6614L3.73221 9.69576C3.7336 9.65622 3.7343 9.63644 3.72947 9.61858C3.72515 9.60256 3.71795 9.58813 3.70774 9.57499C3.69635 9.56035 3.67972 9.54865 3.64647 9.52525C1.50962 8.0214 0.0939007 5.52224 0.00141237 2.69496C-0.000898545 2.62432 -0.002054 2.589 0.0118076 2.56117C0.0238167 2.53706 0.0443219 2.51677 0.0686513 2.50491C0.0967337 2.49123 0.13302 2.49249 0.205593 2.495L16.4952 3.05936Z" fill="#78E3A8"/>
<path d="M16.7357 4.98841C16.8083 4.98589 16.8446 4.98464 16.8726 4.99832C16.897 5.01018 16.9175 5.03047 16.9295 5.05458C16.9433 5.0824 16.9422 5.11773 16.9399 5.18837C16.8474 8.01562 15.4317 10.5147 13.2949 12.0186C13.2616 12.042 13.245 12.0537 13.2336 12.0683C13.2234 12.0815 13.2162 12.0959 13.2119 12.1119C13.2071 12.1298 13.2078 12.1496 13.2091 12.1891L13.2431 13.1548C13.2456 13.2241 13.2468 13.2587 13.2341 13.2857C13.223 13.3093 13.2046 13.3289 13.1816 13.3416C13.1554 13.356 13.1204 13.3572 13.0506 13.3596L4.71083 13.6486C4.64101 13.651 4.60609 13.6522 4.57895 13.6396C4.55507 13.6286 4.53533 13.6103 4.52256 13.5875C4.50804 13.5615 4.50682 13.5268 4.50438 13.4576L4.47039 12.4919C4.469 12.4524 4.46831 12.4326 4.46224 12.4151C4.4568 12.3994 4.4486 12.3855 4.43749 12.3731C4.4251 12.3593 4.40769 12.3488 4.37287 12.3277C2.1355 10.9754 0.547537 8.58036 0.256488 5.76638C0.249215 5.69607 0.245579 5.66091 0.257451 5.63219C0.267735 5.60731 0.286764 5.58565 0.3102 5.57214C0.337252 5.55654 0.373539 5.55529 0.446112 5.55277L16.7357 4.98841Z" fill="#FADA6B"/>
<path d="M16.7294 7.76147C16.802 7.76147 16.8383 7.76147 16.8659 7.77612C16.8898 7.78881 16.9096 7.8098 16.9208 7.83431C16.9336 7.8626 16.9312 7.89786 16.9264 7.96838C16.7346 10.7907 15.2318 13.2394 13.0434 14.6683C13.0093 14.6905 12.9923 14.7017 12.9804 14.7159C12.9697 14.7287 12.962 14.7428 12.9571 14.7587C12.9517 14.7764 12.9517 14.7962 12.9517 14.8357V15.802C12.9517 15.8713 12.9517 15.9059 12.9381 15.9324C12.9261 15.9557 12.907 15.9746 12.8836 15.9865C12.8569 16 12.8219 16 12.7521 16H8.58843C8.58551 16 8.58258 16 8.57966 16C8.57674 16 8.57381 16 8.57089 16H4.40724C4.33737 16 4.30244 16 4.27575 15.9865C4.25228 15.9746 4.23319 15.9557 4.22123 15.9324C4.20763 15.9059 4.20763 15.8713 4.20763 15.802V14.8357C4.20763 14.7962 4.20763 14.7764 4.20219 14.7587C4.1973 14.7428 4.1896 14.7287 4.17893 14.7159C4.16704 14.7017 4.15001 14.6905 4.11595 14.6683C1.9275 13.2394 0.424733 10.7907 0.232847 7.96838C0.228053 7.89786 0.225655 7.8626 0.23853 7.83431C0.249683 7.8098 0.269462 7.78881 0.29336 7.77612C0.320944 7.76147 0.357252 7.76147 0.429869 7.76147H16.7294Z" fill="#EF6F6F"/>
<path d="M35.6082 15.0325C35.2573 15.0325 35.0819 14.8464 35.0819 14.4743V1.30101C35.0819 0.928885 35.2514 0.742821 35.5906 0.742821H37.7311C38.082 0.742821 38.2515 0.928885 38.2399 1.30101L38.0995 5.72931L39.5732 5.71071C39.7604 5.71071 39.9066 5.77273 40.0118 5.89677C40.1288 6.00841 40.1873 6.16346 40.1873 6.36193V7.88765C40.1873 8.08611 40.1288 8.24737 40.0118 8.37141C39.9066 8.48305 39.7604 8.53887 39.5732 8.53887L38.0293 8.57608L37.8539 14.4743C37.8539 14.8464 37.6784 15.0325 37.3275 15.0325H35.6082ZM26.6956 12.502C26.3447 12.1547 26.0699 11.7392 25.871 11.2554C25.6839 10.7716 25.5903 10.2382 25.5903 9.65525C25.5903 9.07225 25.6839 8.53887 25.871 8.0551C26.0699 7.55893 26.3447 7.13719 26.6956 6.78987C27.0582 6.43015 27.4851 6.15106 27.9764 5.95259C28.4793 5.75412 29.029 5.65489 29.6255 5.65489C30.222 5.65489 30.7659 5.75412 31.2572 5.95259C31.7484 6.15106 32.1695 6.43015 32.5204 6.78987C32.8713 7.13719 33.1403 7.55893 33.3274 8.0551C33.5262 8.53887 33.6257 9.07225 33.6257 9.65525C33.6257 10.2382 33.5262 10.7716 33.3274 11.2554C33.1403 11.7392 32.8713 12.1547 32.5204 12.502C32.1695 12.8493 31.7484 13.116 31.2572 13.3021C30.7659 13.4881 30.222 13.5812 29.6255 13.5812C29.029 13.5812 28.4793 13.4881 27.9764 13.3021C27.4851 13.116 27.0582 12.8493 26.6956 12.502ZM25.4675 5.15252C25.3037 5.15252 25.1751 5.1029 25.0815 5.00367C24.9879 4.90443 24.9412 4.76799 24.9412 4.59433V2.99419C24.9412 2.82053 24.9879 2.68408 25.0815 2.58485C25.1751 2.48561 25.3037 2.436 25.4675 2.436H28.0641L28.2922 0.519545C28.3506 0.110206 28.5787 -0.0572505 28.9764 0.0171753L30.9238 0.407907C31.3215 0.482332 31.4794 0.730417 31.3975 1.15216L31.1519 2.41739H33.7309C34.0233 2.41739 34.1695 2.57244 34.1695 2.88255V4.46408C34.1695 4.77419 34.0233 4.92924 33.7309 4.92924L25.4675 5.15252ZM28.2571 9.65525C28.2571 10.1266 28.3974 10.4987 28.6781 10.7716C28.9705 11.0445 29.3565 11.181 29.8361 11.181C30.2922 11.181 30.6607 11.0445 30.9414 10.7716C31.2338 10.4987 31.38 10.1266 31.38 9.65525C31.38 9.18389 31.2338 8.81176 30.9414 8.53887C30.6607 8.26597 30.2922 8.12953 29.8361 8.12953C29.3565 8.12953 28.9705 8.26597 28.6781 8.53887C28.3974 8.81176 28.2571 9.18389 28.2571 9.65525Z" fill="#333538"/>
<path d="M42.4223 9.48779C41.6035 9.48779 41.1942 9.05984 41.1942 8.20395L41.1766 5.04088C41.1766 4.60673 41.2877 4.28422 41.51 4.07335C41.7322 3.85008 42.0246 3.73844 42.3872 3.73844L48.9839 3.71983V2.93837H41.6679C41.4807 2.93837 41.3287 2.88255 41.2117 2.77091C41.1064 2.64687 41.0538 2.48561 41.0538 2.28715V1.02192C41.0538 0.823449 41.1064 0.668396 41.2117 0.556758C41.3287 0.432716 41.4807 0.370695 41.6679 0.370695L50.8436 0.407907C51.2062 0.407907 51.4986 0.519545 51.7208 0.742821C51.9548 0.953693 52.0659 1.2762 52.0542 1.71035L51.9665 4.74318C51.9548 5.15252 51.8495 5.46883 51.6507 5.6921C51.4518 5.91538 51.1477 6.03322 50.7383 6.04562L44.1592 6.10144V6.95733L51.405 6.97594C51.791 6.97594 51.984 7.13099 51.984 7.4411V8.65051C51.984 8.97302 51.791 9.14668 51.405 9.17148L42.4223 9.48779ZM40.5626 12.8927C40.3988 12.9052 40.2702 12.8617 40.1766 12.7625C40.083 12.6509 40.0362 12.5082 40.0362 12.3346V10.9019C40.0362 10.7282 40.083 10.5918 40.1766 10.4925C40.2702 10.3933 40.3988 10.3437 40.5626 10.3437L52.5981 10.3065C52.7618 10.3065 52.8905 10.3561 52.984 10.4553C53.0776 10.5546 53.1244 10.691 53.1244 10.8647V12.0927C53.1244 12.2663 53.0776 12.4028 52.984 12.502C52.8905 12.5888 52.7618 12.6385 52.5981 12.6509L48.1769 12.7439L48.1418 15.4418C48.1184 15.8139 47.9429 16 47.6154 16H45.5452C45.1943 16 45.0189 15.8139 45.0189 15.4418L44.9662 12.7997L40.5626 12.8927Z" fill="#333538"/>
<path d="M62.2241 15.0325C61.8732 15.0325 61.6977 14.8464 61.6977 14.4743L61.5925 7.64576H59.2415C59.0544 7.64576 58.9023 7.58995 58.7854 7.47831C58.6801 7.35427 58.6275 7.19301 58.6275 6.99454V5.3944C58.6275 5.19593 58.6801 5.04088 58.7854 4.92924C58.9023 4.8052 59.0544 4.74318 59.2415 4.74318H61.5574L61.5223 1.48707C61.5223 1.11495 61.6919 0.928884 62.0311 0.928884H63.9961C64.3469 0.928884 64.5165 1.11495 64.5048 1.48707L64.2943 14.4743C64.2943 14.8464 64.1189 15.0325 63.768 15.0325H62.2241ZM65.7154 15.0325C65.3645 15.0325 65.1891 14.8464 65.1891 14.4743V1.30101C65.1891 0.928885 65.3587 0.742821 65.6979 0.742821H67.6628C68.0137 0.742821 68.1833 0.928885 68.1716 1.30101L67.7857 14.4743C67.7857 14.8464 67.6102 15.0325 67.2593 15.0325H65.7154ZM57.0485 9.84131C57.5514 9.84131 58.0485 9.8165 58.5397 9.76688C59.031 9.71727 59.4988 9.65525 59.9433 9.58082C60.1421 9.54361 60.2825 9.55601 60.3644 9.61803C60.4462 9.66765 60.4989 9.77929 60.5223 9.95295L60.7854 11.4973C60.8205 11.6957 60.803 11.8446 60.7328 11.9438C60.6743 12.0307 60.569 12.0989 60.417 12.1485C60.0076 12.2601 59.5807 12.3656 59.1362 12.4648C58.7035 12.5516 58.259 12.6323 57.8029 12.7067C57.3584 12.7687 56.9139 12.8183 56.4695 12.8555C56.025 12.8803 55.604 12.8865 55.2063 12.8741C54.3992 12.8493 53.9899 12.4214 53.9782 11.5903L53.715 2.13829C53.6916 1.76617 53.8612 1.58011 54.2238 1.58011H56.3291C56.5046 1.58011 56.6274 1.62972 56.6976 1.72896C56.7794 1.81579 56.8262 1.95223 56.8379 2.13829L57.0485 9.84131Z" fill="#333538"/>
<path d="M80.3678 15.0325C80.0169 15.0325 79.8414 14.8464 79.8414 14.4743V1.30101C79.8414 0.928885 80.011 0.742821 80.3502 0.742821H82.4906C82.8415 0.742821 83.0111 0.928885 82.9994 1.30101L82.6134 14.4743C82.6134 14.8464 82.438 15.0325 82.0871 15.0325H80.3678ZM69.4727 11.7392C69.344 11.6771 69.2563 11.5779 69.2095 11.4415C69.1627 11.2926 69.1861 11.1313 69.2797 10.9577C69.8294 9.89093 70.2622 8.84897 70.578 7.83183C70.8938 6.81468 71.0926 5.80374 71.1745 4.799H69.4902C69.1978 4.799 69.0516 4.64395 69.0516 4.33384V2.19411C69.0516 1.88401 69.1978 1.72896 69.4902 1.72896H73.0342C73.1044 1.72896 73.1979 1.74136 73.3149 1.76617V1.63592C73.3149 1.32582 73.4611 1.17077 73.7535 1.17077H77.4554C77.7595 1.17077 78.011 1.2638 78.2098 1.44986C78.4086 1.62352 78.508 1.90261 78.508 2.28715V2.65927C78.508 3.50276 78.4554 4.37105 78.3501 5.26416C78.2566 6.15726 78.1104 7.05036 77.9115 7.94347C77.7244 8.83657 77.4846 9.71727 77.1922 10.5856C76.8998 11.4539 76.5665 12.2911 76.1922 13.0974C76.1103 13.2711 75.9992 13.3951 75.8588 13.4695C75.7302 13.5316 75.584 13.5316 75.4202 13.4695L74.0518 12.9114C73.9231 12.8617 73.8295 12.7625 73.771 12.6137C73.7126 12.4648 73.7243 12.3035 73.8061 12.1299C74.3792 10.7778 74.812 9.44438 75.1044 8.12953C75.4085 6.81468 75.5723 5.51844 75.5957 4.24081H74.0342C73.9406 5.53085 73.6716 6.84569 73.2272 8.18535C72.7944 9.525 72.2096 10.815 71.4727 12.0555C71.3792 12.2291 71.2622 12.347 71.1218 12.409C70.9815 12.4586 70.8294 12.44 70.6657 12.3532L69.4727 11.7392Z" fill="#333538"/>
</svg>
