<svg width="20" height="20" viewBox="0 0 20 20" fill="none" xmlns="http://www.w3.org/2000/svg">
<path d="M6.66699 6.66663C6.88801 6.66663 7.09991 6.75449 7.25619 6.91077C7.41247 7.06705 7.50033 7.27895 7.50033 7.49996C7.50033 7.72097 7.41247 7.93287 7.25619 8.08915C7.09991 8.24543 6.88801 8.33329 6.66699 8.33329C6.44598 8.33329 6.23408 8.24543 6.0778 8.08915C5.92152 7.93287 5.83366 7.72097 5.83366 7.49996C5.83366 7.27895 5.92152 7.06705 6.0778 6.91077C6.23408 6.75449 6.44598 6.66663 6.66699 6.66663Z" fill="#596072"/>
<path d="M13.3337 6.66663C13.5547 6.66663 13.7666 6.75449 13.9229 6.91077C14.0791 7.06705 14.167 7.27895 14.167 7.49996C14.167 7.72097 14.0791 7.93287 13.9229 8.08915C13.7666 8.24543 13.5547 8.33329 13.3337 8.33329C13.1126 8.33329 12.9007 8.24543 12.7445 8.08915C12.5882 7.93287 12.5003 7.72097 12.5003 7.49996C12.5003 7.27895 12.5882 7.06705 12.7445 6.91077C12.9007 6.75449 13.1126 6.66663 13.3337 6.66663Z" fill="#596072"/>
<path fill-rule="evenodd" clip-rule="evenodd" d="M10.0003 1.04163C10.7685 1.04163 11.4077 1.04041 11.9128 1.10836C12.4358 1.17877 12.9078 1.33355 13.2873 1.71301C13.6667 2.09248 13.8215 2.56447 13.8919 3.08753C13.9412 3.45403 13.9537 3.8913 13.957 4.39693C14.4976 4.41428 14.9798 4.44513 15.408 4.50273C16.3848 4.63413 17.1756 4.91085 17.799 5.53463C18.4222 6.15832 18.6994 6.94945 18.8309 7.92639C18.9599 8.88531 18.9587 10.1132 18.9587 11.6666C18.9587 13.2202 18.9599 14.4486 18.8309 15.4077C18.6995 16.3845 18.4228 17.1753 17.799 17.7986C17.1753 18.4218 16.3842 18.699 15.4072 18.8305C14.4483 18.9596 13.2205 18.9583 11.667 18.9583H8.33366C6.78008 18.9583 5.55166 18.9595 4.59261 18.8305C3.6158 18.6991 2.82501 18.4224 2.20166 17.7986C1.5785 17.1749 1.30128 16.3838 1.16976 15.4069C1.04071 14.4479 1.04199 13.2201 1.04199 11.6666C1.04199 10.1131 1.04077 8.88463 1.16976 7.92558C1.30117 6.94877 1.57788 6.15798 2.20166 5.53463C2.82536 4.91147 3.61648 4.63425 4.59342 4.50273C5.02131 4.44514 5.50279 4.41435 6.04281 4.39693C6.04613 3.8913 6.05942 3.45403 6.10872 3.08753C6.17913 2.56447 6.33391 2.09248 6.71338 1.71301C7.09285 1.33355 7.56483 1.17877 8.08789 1.10836C8.593 1.04041 9.23218 1.04163 10.0003 1.04163ZM8.33366 5.62496C6.74504 5.62496 5.61645 5.62692 4.76025 5.74215C3.92214 5.85498 3.4384 6.06586 3.08545 6.41842C2.73275 6.77081 2.52113 7.25402 2.40837 8.09241C2.29319 8.94877 2.29199 10.0777 2.29199 11.6666C2.29199 13.2552 2.29395 14.3838 2.40918 15.24C2.52201 16.0781 2.73289 16.5619 3.08545 16.9148C3.43785 17.2675 3.92105 17.4792 4.75944 17.5919C5.6158 17.7071 6.74473 17.7083 8.33366 17.7083H11.667C13.2556 17.7083 14.3842 17.7063 15.2404 17.5911C16.0785 17.4783 16.5622 17.2674 16.9152 16.9148C17.2679 16.5624 17.4795 16.0792 17.5923 15.2408C17.7075 14.3845 17.7087 13.2556 17.7087 11.6666C17.7087 10.078 17.7067 8.94942 17.5915 8.09322C17.4786 7.25511 17.2678 6.77137 16.9152 6.41842C16.5628 6.06572 16.0796 5.8541 15.2412 5.74133C14.3848 5.62616 13.2559 5.62496 11.667 5.62496H8.33366ZM10.0003 2.29163C9.19681 2.29163 8.65711 2.29283 8.25472 2.34697C7.87054 2.39867 7.70593 2.48804 7.59717 2.5968C7.48841 2.70557 7.39903 2.87018 7.34733 3.25436C7.30859 3.54235 7.29958 3.90079 7.29606 4.37577C7.62459 4.37422 7.97021 4.37496 8.33366 4.37496H11.667C12.0301 4.37496 12.3755 4.37424 12.7038 4.37577C12.7003 3.90079 12.6921 3.54235 12.6533 3.25436C12.6016 2.87018 12.5122 2.70557 12.4035 2.5968C12.2947 2.48804 12.1301 2.39867 11.7459 2.34697C11.3435 2.29283 10.8038 2.29163 10.0003 2.29163Z" fill="#596072"/>
</svg>
