<svg width="105" height="100" viewBox="0 0 105 100" fill="none" xmlns="http://www.w3.org/2000/svg">
<path d="M103.146 0.00986447C103.595 -0.00571926 103.82 -0.0135111 103.994 0.0713003C104.145 0.144777 104.272 0.270556 104.347 0.419978C104.433 0.59245 104.425 0.811378 104.411 1.24923C103.833 18.9072 94.9278 34.5001 81.5128 43.7966C81.308 43.9385 81.2056 44.0095 81.1349 44.0985C81.0714 44.1785 81.0262 44.2664 80.9982 44.3643C80.967 44.4734 80.9692 44.5946 80.9734 44.8369L81.0837 51.1047C81.0913 51.5343 81.095 51.7491 81.0137 51.9146C80.9421 52.0602 80.8259 52.1796 80.6817 52.2556C80.5178 52.3421 80.3013 52.3458 79.8684 52.3533L54.1873 52.7981C53.7816 52.81 53.3769 52.8169 52.9731 52.8191L28.1555 53.2489C27.7226 53.2564 27.5061 53.2601 27.3392 53.1794C27.1925 53.1084 27.0721 52.9931 26.9955 52.8501C26.9083 52.6875 26.9046 52.4727 26.897 52.0431L26.7966 46.3364C26.7922 46.0884 26.7901 45.9644 26.7537 45.8543C26.721 45.7556 26.6708 45.668 26.602 45.5896C26.5253 45.5023 26.4167 45.4356 26.1993 45.302C12.5022 36.8863 2.79842 22.137 1.00852 4.8316C0.963447 4.39585 0.940912 4.17797 1.01449 3.99997C1.07823 3.84576 1.19617 3.71149 1.34143 3.62776C1.50909 3.53111 1.73399 3.52332 2.1838 3.50773L103.146 0.00986447Z" fill="#3B99DC"/>
<path d="M102.236 18.9615C102.686 18.9771 102.911 18.9849 103.078 19.0816C103.224 19.1653 103.342 19.2996 103.405 19.4538C103.479 19.6318 103.456 19.8497 103.411 20.2854C101.607 37.7262 91.7653 52.5707 77.8983 60.9522C77.6825 61.0826 77.5746 61.1478 77.4978 61.2335C77.4289 61.3103 77.3782 61.3964 77.3444 61.4937C77.3068 61.602 77.3025 61.7246 77.2939 61.9696L77.0832 67.955C77.0681 68.3844 77.0606 68.599 76.9706 68.7601C76.8914 68.9018 76.7691 69.015 76.6211 69.0835C76.4528 69.1613 76.2364 69.1538 75.8037 69.1388L24.1145 67.348C23.6817 67.333 23.4653 67.3255 23.303 67.2362C23.1602 67.1577 23.0461 67.0363 22.9771 66.8895C22.8986 66.7226 22.9062 66.5079 22.9213 66.0785L23.1319 60.0934C23.1406 59.8483 23.1449 59.7257 23.115 59.615C23.0882 59.5157 23.0436 59.4263 22.9803 59.3449C22.9097 59.2541 22.8066 59.1816 22.6005 59.0365C9.35648 49.7158 0.581989 34.2262 0.00875376 16.703C-0.00556911 16.2652 -0.0127305 16.0462 0.0731826 15.8738C0.147614 15.7244 0.274704 15.5986 0.425496 15.5251C0.599548 15.4403 0.824449 15.4481 1.27425 15.4637L102.236 18.9615Z" fill="#78E3A8"/>
<path d="M103.726 30.9175C104.175 30.9019 104.4 30.8941 104.574 30.979C104.725 31.0524 104.852 31.1782 104.927 31.3276C105.013 31.5001 105.005 31.719 104.991 32.1569C104.418 49.6799 95.6435 65.1693 82.3996 74.49C82.1935 74.6351 82.0904 74.7076 82.0199 74.7983C81.9566 74.8797 81.9119 74.9692 81.8851 75.0685C81.8552 75.1792 81.8596 75.3017 81.8682 75.5468L82.0789 81.5322C82.094 81.9615 82.1015 82.1762 82.0231 82.3431C81.9541 82.49 81.84 82.6113 81.6972 82.6899C81.5348 82.7792 81.3184 82.7867 80.8857 82.8017L29.1963 84.5925C28.7635 84.6075 28.5471 84.615 28.3789 84.5371C28.2309 84.4687 28.1086 84.3555 28.0294 84.2138C27.9394 84.0527 27.9318 83.838 27.9167 83.4087L27.7061 77.4235C27.6974 77.1784 27.6931 77.0559 27.6555 76.9475C27.6218 76.8503 27.571 76.7642 27.5021 76.6873C27.4254 76.6017 27.3174 76.5365 27.1016 76.406C13.2346 68.0246 3.3925 53.1801 1.5886 35.7393C1.54353 35.3035 1.52099 35.0856 1.59457 34.9076C1.65831 34.7534 1.77625 34.6192 1.92151 34.5354C2.08917 34.4388 2.31407 34.431 2.76387 34.4154L103.726 30.9175Z" fill="#FADA6B"/>
<path d="M103.688 48.1048C104.138 48.1048 104.363 48.1048 104.534 48.1956C104.682 48.2742 104.805 48.4043 104.874 48.5562C104.954 48.7316 104.939 48.9501 104.909 49.3872C103.72 66.8799 94.4062 82.0562 80.8424 90.9127C80.6313 91.0506 80.5258 91.1195 80.452 91.2077C80.3859 91.2869 80.3382 91.3747 80.3079 91.473C80.2741 91.5826 80.2741 91.7053 80.2741 91.9505V97.9391C80.2741 98.3688 80.2741 98.5836 80.1899 98.7477C80.1157 98.892 79.9974 99.0093 79.852 99.0829C79.6866 99.1665 79.47 99.1665 79.037 99.1665H53.231C53.2129 99.1665 53.1948 99.1667 53.1767 99.1667C53.1585 99.1667 53.1404 99.1665 53.1223 99.1665H27.3163C26.8833 99.1665 26.6668 99.1665 26.5014 99.0829C26.3559 99.0093 26.2376 98.892 26.1635 98.7477C26.0792 98.5836 26.0792 98.3688 26.0792 97.9391V91.9505C26.0792 91.7053 26.0792 91.5826 26.0454 91.473C26.0151 91.3747 25.9674 91.2869 25.9013 91.2077C25.8275 91.1195 25.722 91.0506 25.5109 90.9127C11.9471 82.0562 2.63304 66.8799 1.44374 49.3872C1.41403 48.9501 1.39917 48.7316 1.47896 48.5562C1.54809 48.4043 1.67068 48.2742 1.81879 48.1956C1.98976 48.1048 2.2148 48.1048 2.66487 48.1048H103.688Z" fill="#EF6F6F"/>
</svg>
