<svg width="16" height="16" viewBox="0 0 16 16" fill="none" xmlns="http://www.w3.org/2000/svg">
<path fill-rule="evenodd" clip-rule="evenodd" d="M3.74901 3.02124C2.64301 3.52657 1.83301 4.72924 1.83301 6.16324C1.83301 7.6279 2.43301 8.75724 3.29167 9.72524C4.00034 10.5226 4.85767 11.1839 5.69367 11.8279C5.89279 11.9812 6.08945 12.1341 6.28367 12.2866C6.63434 12.5632 6.94701 12.8052 7.24901 12.9819C7.55101 13.1586 7.79301 13.2386 7.99967 13.2386C8.20634 13.2386 8.44901 13.1586 8.75034 12.9819C9.05234 12.8052 9.36501 12.5632 9.71567 12.2866C9.9099 12.1337 10.1066 11.981 10.3057 11.8286C11.1417 11.1832 11.999 10.5226 12.7077 9.72524C13.567 8.75724 14.1663 7.6279 14.1663 6.16324C14.1663 4.7299 13.3563 3.52657 12.2503 3.02124C11.1757 2.5299 9.73167 2.6599 8.35967 4.0859C8.31303 4.1343 8.25711 4.17279 8.19526 4.19908C8.1334 4.22537 8.06688 4.23892 7.99967 4.23892C7.93246 4.23892 7.86594 4.22537 7.80409 4.19908C7.74224 4.17279 7.68632 4.1343 7.63967 4.0859C6.26767 2.6599 4.82367 2.5299 3.74901 3.02124ZM7.99967 3.04524C6.45834 1.66524 4.73234 1.4719 3.33301 2.11124C1.85701 2.7879 0.833008 4.3559 0.833008 6.1639C0.833008 7.94057 1.57301 9.29657 2.54434 10.3899C3.32167 11.2652 4.27301 11.9979 5.11367 12.6446C5.30479 12.7912 5.48834 12.9339 5.66434 13.0726C6.00634 13.3419 6.37301 13.6286 6.74434 13.8459C7.11567 14.0632 7.53967 14.2392 7.99967 14.2392C8.45967 14.2392 8.88367 14.0626 9.25501 13.8459C9.62701 13.6286 9.99301 13.3419 10.335 13.0726C10.511 12.9339 10.6946 12.7912 10.8857 12.6446C11.7257 11.9979 12.6777 11.2646 13.455 10.3899C14.4263 9.29657 15.1663 7.94057 15.1663 6.1639C15.1663 4.3559 14.143 2.7879 12.6663 2.11257C11.267 1.47257 9.54101 1.6659 7.99967 3.04524Z" fill="#EF6F6F"/>
</svg>
