<svg width="16" height="16" viewBox="0 0 16 16" fill="none" xmlns="http://www.w3.org/2000/svg">
<path fill-rule="evenodd" clip-rule="evenodd" d="M12.64 1.57218C13.188 1.39903 13.7321 1.54766 14.0925 1.90812C14.4769 2.29261 14.6203 2.88589 14.3894 3.46997L10.4363 13.4765C10.1796 14.127 9.58912 14.4773 9.01112 14.4986C8.42586 14.52 7.81344 14.1972 7.61073 13.5025L6.51633 9.74276C6.47942 9.61579 6.38527 9.52101 6.25722 9.48364L2.4981 8.38989C1.80264 8.18747 1.48024 7.57419 1.50201 6.98885C1.52355 6.41102 1.87409 5.82111 2.52414 5.56437L12.5307 1.61125L12.64 1.57218ZM13.3855 2.61515C13.2863 2.51596 13.1163 2.45498 12.8985 2.54093L2.89133 6.49471C2.63519 6.59587 2.50914 6.81754 2.50136 7.02596C2.49387 7.2268 2.58918 7.37479 2.7774 7.4296L6.53651 8.52401C6.99253 8.65686 7.34414 9.00714 7.47662 9.46346L8.57037 13.2226L8.59511 13.289C8.6631 13.4334 8.79892 13.5057 8.97466 13.4993C9.18282 13.4915 9.40478 13.3656 9.50591 13.1093L13.4597 3.10278C13.5457 2.885 13.4846 2.71438 13.3855 2.61515Z" fill="#EF6F6F"/>
</svg>
