<svg width="16" height="20" viewBox="0 0 16 20" fill="none" xmlns="http://www.w3.org/2000/svg">
<path fill-rule="evenodd" clip-rule="evenodd" d="M8 0C3.582 0 0 4.003 0 8.5C0 12.962 2.553 17.812 6.537 19.674C6.99492 19.8884 7.49437 19.9996 8 19.9996C8.50563 19.9996 9.00508 19.8884 9.463 19.674C13.447 17.812 16 12.962 16 8.5C16 4.003 12.418 0 8 0ZM8 10C8.53043 10 9.03914 9.78929 9.41421 9.41421C9.78929 9.03914 10 8.53043 10 8C10 7.46957 9.78929 6.96086 9.41421 6.58579C9.03914 6.21071 8.53043 6 8 6C7.46957 6 6.96086 6.21071 6.58579 6.58579C6.21071 6.96086 6 7.46957 6 8C6 8.53043 6.21071 9.03914 6.58579 9.41421C6.96086 9.78929 7.46957 10 8 10Z" fill="white"/>
</svg>
