<svg width="80" height="80" viewBox="0 0 80 80" fill="none" xmlns="http://www.w3.org/2000/svg">
<path fill-rule="evenodd" clip-rule="evenodd" d="M40 0C61.4207 0 78.9081 16.8378 79.9502 38H53V42H79.9502C78.9081 63.1622 61.4207 80 40 80C18.5793 80 1.09188 63.1622 0.0498047 42H27V38H0.0498047C1.09188 16.8378 18.5793 0 40 0ZM38 75.9434C38.6621 75.9796 39.3288 76 40 76C40.6712 76 41.3379 75.9796 42 75.9434V53H38V75.9434ZM16.5303 67.2969C21.3957 71.4839 27.3925 74.3904 34 75.499V65H31V70.7129C26.6727 69.4469 22.7256 67.2922 19.3691 64.458L16.5303 67.2969ZM60.6299 64.458C57.2735 67.2919 53.327 69.4468 49 70.7129V65H46V75.499C52.6073 74.3904 58.6035 71.4837 63.4688 67.2969L60.6299 64.458ZM15.1973 53C17.8401 58.0319 21.9681 62.1599 27 64.8027V60H25V60.9746C22.9999 59.6016 21.2278 57.9205 19.752 56H31V61H34V53H15.1973ZM46 61H49V56H60.248C58.7722 57.9205 57.0001 59.6016 55 60.9746V60H53V64.8027C58.0319 62.1599 62.1599 58.0319 64.8027 53H46V61ZM4.50098 46C5.6911 53.0932 8.9539 59.4821 13.6475 64.5234L16.4785 61.6924C13.181 58.1186 10.6891 53.7925 9.28711 49H34V46H4.50098ZM46 46V49H70.7129C69.3107 53.7926 66.8182 58.1185 63.5205 61.6924L66.3516 64.5234C71.0454 59.482 74.3089 53.0934 75.499 46H46ZM38 38H31V42H38V49H42V42H49V38H42V31H38V38ZM13.6475 15.4756C8.95364 20.5171 5.69114 26.9066 4.50098 34H34V31H9.28711C10.6891 26.2072 13.1808 21.8805 16.4785 18.3066L13.6475 15.4756ZM63.5205 18.3066C66.8185 21.8806 69.3108 26.2071 70.7129 31H46V34H75.499C74.3088 26.9063 71.0456 20.5171 66.3516 15.4756L63.5205 18.3066ZM27 15.1963C21.9679 17.8391 17.8402 21.968 15.1973 27H34V19H31V24H19.752C21.2278 22.0795 22.9999 20.3984 25 19.0254V20H27V15.1963ZM40 4C39.3289 4 38.6621 4.01941 38 4.05566V27H42V4.05566C41.3379 4.01941 40.6711 4 40 4ZM53 20H55V19.0254C57.0001 20.3984 58.7722 22.0795 60.248 24H49V19H46V27H64.8027C62.1598 21.968 58.0321 17.8391 53 15.1963V20ZM34 4.5C27.3926 5.60858 21.3956 8.51527 16.5303 12.7021L19.3691 15.541C22.7257 12.7069 26.6726 10.5512 31 9.28516V15H34V4.5ZM46 15H49V9.28516C53.327 10.5513 57.2735 12.7072 60.6299 15.541L63.4688 12.7021C58.6035 8.51553 52.6071 5.60853 46 4.5V15Z" fill="#17171B" fill-opacity="0.2"/>
</svg>
